 <svg version="1.0" xmlns="http://www.w3.org/2000/svg" width="300.000000pt" height="159.000000pt" viewBox="0 0 300.000000 159.000000" preserveAspectRatio="xMidYMid meet">  <g transform="translate(0.000000,159.000000) scale(0.050000,-0.050000)" fill="#000000" stroke="none"> <path d="M720 2520 l0 -660 100 0 100 0 0 660 0 660 -100 0 -100 0 0 -660z"></path> <path d="M1085 2525 l5 -655 85 -6 84 -6 6 476 5 476 122 -470 121 -470 104 -6 103 -6 0 661 0 661 -90 0 -90 0 -2 -385 -1 -385 -101 385 -102 385 -127 0 -128 0 6 -655z"></path> <path d="M1880 2520 l0 -660 100 0 100 0 0 300 0 300 109 0 110 0 5 -295 6 -295 95 -6 95 -6 0 661 0 661 -100 0 -100 0 0 -270 0 -270 -110 0 -110 0 0 270 0 270 -100 0 -100 0 0 -660z"></path> <path d="M2820 3172 c0 -4 -45 -283 -100 -620 -123 -753 -122 -696 -16 -688 92 7 82 -10 128 211 8 40 21 45 126 45 l116 0 18 -125 18 -125 95 -4 c86 -4 95 -1 95 40 0 34 -131 866 -191 1209 l-11 65 -139 0 c-76 0 -139 -4 -139 -8z m178 -529 c55 -373 59 -343 -50 -343 -91 0 -93 1 -82 55 5 30 26 174 46 320 20 145 38 262 40 260 2 -3 23 -134 46 -292z"></path> <path d="M100 2524 l0 -636 250 0 250 -1 0 74 0 74 -153 3 c-84 2 -160 8 -170 14 -9 6 -17 257 -17 559 l0 549 -80 0 -80 0 0 -636z"></path> <path d="M0 1650 l0 -70 2720 0 2720 0 0 70 0 70 -2720 0 -2720 0 0 -70z"></path> <path d="M1280 650 l0 -650 270 0 270 0 0 90 0 90 -170 0 -170 0 0 560 0 560 -100 0 -100 0 0 -650z"></path> <path d="M2080 1291 c0 -5 -45 -284 -100 -621 -121 -743 -120 -670 -11 -670 88 0 89 1 101 75 33 201 21 185 150 185 l117 0 14 -130 14 -130 105 0 c91 0 105 5 99 35 -4 19 -49 291 -99 605 -50 314 -95 590 -101 615 -9 41 -289 76 -289 36z m180 -518 c53 -361 57 -333 -52 -333 -86 0 -92 3 -82 45 6 25 27 164 46 310 20 145 38 261 41 258 4 -3 24 -129 47 -280z"></path> <path d="M2540 1210 l0 -90 110 0 110 0 0 -560 0 -560 100 0 100 0 0 559 0 559 105 6 105 6 6 85 6 85 -321 0 -321 0 0 -90z"></path> <path d="M3280 650 l0 -650 280 0 280 0 0 90 0 90 -180 0 -180 0 0 199 0 199 135 6 135 6 6 95 6 95 -141 0 -141 0 0 169 0 169 175 6 175 6 6 85 6 85 -281 0 -281 0 0 -650z"></path> <path d="M3960 650 l0 -650 100 0 100 0 0 280 0 280 68 0 c105 0 121 -36 132 -308 l10 -242 100 -6 100 -6 -5 206 c-8 300 -20 364 -75 416 l-49 46 49 57 c86 103 95 366 16 473 -64 87 -119 103 -341 104 l-205 0 0 -650z m372 420 c24 -37 30 -80 24 -161 -11 -129 -24 -146 -123 -162 l-73 -12 0 192 0 193 70 0 c52 0 77 -13 102 -50z"></path> <path d="M4860 1292 c0 -4 -45 -282 -100 -618 -122 -743 -120 -674 -12 -674 86 0 88 2 100 75 35 200 23 185 152 185 l117 0 14 -130 14 -130 105 0 c91 0 105 5 98 35 -4 19 -48 287 -98 595 -49 308 -95 585 -102 615 -11 54 -15 55 -150 55 -76 0 -138 -4 -138 -8z m180 -519 c53 -361 57 -333 -52 -333 -86 0 -92 3 -82 45 6 25 27 164 46 310 20 145 38 261 41 258 4 -3 24 -129 47 -280z"></path> <path d="M5489 1283 c-5 -5 -9 -296 -9 -646 l0 -637 250 0 250 0 0 80 0 80 -138 0 c-221 0 -202 -53 -202 570 l0 546 -71 8 c-38 4 -74 4 -80 -1z"></path> </g> </svg> 